states
version=1
nRows=18
nColumns=39
inDegrees=yes
endheader
time	/hamstrings_r/activation	/bifemsh_r/activation	/glut_max_r/activation	/iliopsoas_r/activation	/rect_fem_r/activation	/vasti_r/activation	/gastroc_r/activation	/soleus_r/activation	/tib_ant_r/activation	/hamstrings_l/activation	/bifemsh_l/activation	/glut_max_l/activation	/iliopsoas_l/activation	/rect_fem_l/activation	/vasti_l/activation	/gastroc_l/activation	/soleus_l/activation	/tib_ant_l/activation	/jointset/groundPelvis/pelvis_tilt/value	/jointset/groundPelvis/pelvis_tilt/speed	/jointset/groundPelvis/pelvis_tx/value	/jointset/groundPelvis/pelvis_tx/speed	/jointset/groundPelvis/pelvis_ty/value	/jointset/groundPelvis/pelvis_ty/speed	/jointset/hip_l/hip_flexion_l/value	/jointset/hip_l/hip_flexion_l/speed	/jointset/hip_r/hip_flexion_r/value	/jointset/hip_r/hip_flexion_r/speed	/jointset/knee_l/knee_angle_l/value	/jointset/knee_l/knee_angle_l/speed	/jointset/knee_r/knee_angle_r/value	/jointset/knee_r/knee_angle_r/speed	/jointset/ankle_l/ankle_angle_l/value	/jointset/ankle_l/ankle_angle_l/speed	/jointset/ankle_r/ankle_angle_r/value	/jointset/ankle_r/ankle_angle_r/speed	/jointset/lumbar/lumbar/value	/jointset/lumbar/lumbar/speed
      0.72000000	      0.01000000	      0.01000000	      0.01000000	      0.01000000	      0.01000000	      0.01000000	      0.01000000	      0.01000000	      0.01000000	      0.01000000	      0.01000000	      0.01000000	      0.01000000	      0.01000000	      0.01000000	      0.01000000	      0.01000000	      0.01000000	     12.34956260	    -50.10225102	      0.15368065	      0.34164671	      0.56993417	      0.47687315	     70.80246610	    -37.09441195	     71.48335121	    -36.01274089	   -110.98117360	     59.48385185	   -111.02547011	     59.09925621	     27.33079458	     17.32989389	     28.99840953	     14.76465220	    -63.61501950	     26.80700422
      0.73000000	      0.01000000	      0.01000000	      0.01000000	      0.01000000	      0.01000000	      0.01000000	      0.01000000	      0.01000000	      0.01000000	      0.01000000	      0.01000000	      0.01000000	      0.01000000	      0.01000000	      0.01000000	      0.01000000	      0.01000000	      0.01000000	     11.85432922	    -49.50395360	      0.15720830	      0.36168108	      0.57469125	      0.47970077	     70.40387523	    -42.62964344	     71.10185930	    -40.09995543	   -110.38676478	     60.00810011	   -110.44015132	     59.71221698	     27.71418425	     53.48553509	     29.31400087	     43.56810612	    -63.22607214	     44.93111775
      0.74000000	      0.01000000	      0.01000000	      0.01000000	      0.01000000	      0.01000000	      0.01000000	      0.01000000	      0.01000000	      0.01000000	      0.01000000	      0.01000000	      0.01000000	      0.01000000	      0.01000000	      0.01000000	      0.01000000	      0.01000000	      0.01000000	     11.37168477	    -46.32911624	      0.16086318	      0.36758235	      0.57959459	      0.50008651	     69.94320496	    -49.15261960	     70.67045892	    -46.30197782	   -109.77497597	     62.37274529	   -109.81836360	     63.96586711	     28.27039155	     53.85149225	     29.76585982	     43.79264443	    -62.77467158	     47.09757224
      0.75000000	      0.01000000	      0.01000000	      0.01000000	      0.01000000	      0.01000000	      0.01000000	      0.01000000	      0.01000000	      0.01000000	      0.01000000	      0.01000000	      0.01000000	      0.01000000	      0.01000000	      0.01000000	      0.01000000	      0.01000000	      0.01000000	     10.89536802	    -51.40719117	      0.16449087	      0.35554550	      0.58470506	      0.52380093	     69.47091190	    -42.72392374	     70.22322290	    -40.31722161	   -109.11967589	     69.79550271	   -109.15137123	     70.58987603	     28.63793536	     13.46235530	     30.06725465	     11.43238073	    -62.34321889	     33.99925310
      0.76000000	      0.01000000	      0.01000000	      0.01000000	      0.01000000	      0.01000000	      0.01000000	      0.01000000	      0.01000000	      0.01000000	      0.01000000	      0.01000000	      0.01000000	      0.01000000	      0.01000000	      0.01000000	      0.01000000	      0.01000000	      0.01000000	     10.38369146	    -46.22787290	      0.16811659	      0.38084708	      0.59000229	      0.52948311	     69.02690089	    -52.23922888	     69.80510729	    -49.51404709	   -108.41325033	     68.42735775	   -108.43761668	     69.12629115	     28.80092508	     41.64725734	     30.20440029	     34.17244994	    -61.95268198	     57.99858888
      0.77000000	      0.01000000	      0.01000000	      0.01000000	      0.01000000	      0.01000000	      0.01000000	      0.01000000	      0.01000000	      0.01000000	      0.01000000	      0.01000000	      0.01000000	      0.01000000	      0.01000000	      0.01000000	      0.01000000	      0.01000000	      0.01000000	      9.93743732	    -49.55219921	      0.17201074	      0.38142073	      0.59535331	      0.55015755	     68.46690976	    -51.40642383	     69.27458510	    -48.14197919	   -107.71875942	     75.31694350	   -107.73877707	     75.38160679	     29.32419387	     32.70398673	     30.63346191	     27.23520913	    -61.29800092	     52.60161679
      0.78000000	      0.01000000	      0.01000000	      0.01000000	      0.01000000	      0.01000000	      0.01000000	      0.01000000	      0.01000000	      0.01000000	      0.01000000	      0.01000000	      0.01000000	      0.01000000	      0.01000000	      0.01000000	      0.01000000	      0.01000000	      0.01000000	      9.40962007	    -48.37299360	      0.17577101	      0.38865352	      0.60097622	      0.56317234	     67.98745203	    -53.55639134	     68.82664292	    -50.92868788	   -106.92768369	     76.72654567	   -106.94638292	     77.40148087	     29.46733195	     26.86737451	     30.75779209	     22.47074883	    -60.85615953	     58.71882583
      0.79000000	      0.01000000	      0.01000000	      0.01000000	      0.01000000	      0.01000000	      0.01000000	      0.01000000	      0.01000000	      0.01000000	      0.01000000	      0.01000000	      0.01000000	      0.01000000	      0.01000000	      0.01000000	      0.01000000	      0.01000000	      0.01000000	      8.98825160	    -42.44029219	      0.17983966	      0.41016556	      0.60659208	      0.56991884	     67.36616066	    -63.38589200	     68.22696300	    -61.25288022	   -106.19535809	     75.27680202	   -106.19700970	     77.85156006	     29.98730829	     53.41489740	     31.18426926	     43.78693452	    -60.07163111	     78.04737467
      0.80000000	      0.01000000	      0.01000000	      0.01000000	      0.01000000	      0.01000000	      0.01000000	      0.01000000	      0.01000000	      0.01000000	      0.01000000	      0.01000000	      0.01000000	      0.01000000	      0.01000000	      0.01000000	      0.01000000	      0.01000000	      0.01000000	      8.51976184	    -47.24317567	      0.18385349	      0.39982691	      0.61244873	      0.59622631	     66.77237224	    -59.44854620	     67.65694087	    -57.11993139	   -105.38350852	     84.06078670	   -105.35974968	     86.08400783	     30.32958885	     25.91903668	     31.46655606	     21.29702517	    -59.43327328	     61.23851867
      0.81000000	      0.01000000	      0.01000000	      0.01000000	      0.01000000	      0.01000000	      0.01000000	      0.01000000	      0.01000000	      0.01000000	      0.01000000	      0.01000000	      0.01000000	      0.01000000	      0.01000000	      0.01000000	      0.01000000	      0.01000000	      0.01000000	      8.07523862	    -43.75861711	      0.18790633	      0.40735639	      0.61846551	      0.60948403	     66.14291794	    -64.39118426	     67.04500796	    -63.20263298	   -104.54014329	     86.12740868	   -104.50165342	     87.52073136	     30.61579505	     26.55118288	     31.69898975	     21.44875999	    -58.73557593	     73.02446129
      0.82000000	      0.01000000	      0.01000000	      0.01000000	      0.01000000	      0.01000000	      0.01000000	      0.01000000	      0.01000000	      0.01000000	      0.01000000	      0.01000000	      0.01000000	      0.01000000	      0.01000000	      0.01000000	      0.01000000	      0.01000000	      0.01000000	      7.64384760	    -40.35690291	      0.19199894	      0.41451498	      0.62465100	      0.62595647	     65.47968016	    -70.73510694	     66.39488421	    -68.96703214	   -103.66105140	     88.14217601	   -103.59952221	     91.58615753	     30.88309558	     33.67371409	     31.91159493	     26.30140937	    -58.00969146	     75.18117990
      0.83000000	      0.01000000	      0.01000000	      0.01000000	      0.01000000	      0.01000000	      0.01000000	      0.01000000	      0.01000000	      0.01000000	      0.01000000	      0.01000000	      0.01000000	      0.01000000	      0.01000000	      0.01000000	      0.01000000	      0.01000000	      0.01000000	      7.24316923	    -44.00133453	      0.19613110	      0.40439381	      0.63101166	      0.64852300	     64.76173230	    -67.69554188	     65.69103834	    -67.35790548	   -102.75249910	     96.75229699	   -102.65086212	    100.56702849	     31.19320865	     15.27935015	     32.15061931	     11.40498859	    -57.29702541	     60.63798981
      0.84000000	      0.01000000	      0.01000000	      0.01000000	      0.01000000	      0.01000000	      0.01000000	      0.01000000	      0.01000000	      0.01000000	      0.01000000	      0.01000000	      0.01000000	      0.01000000	      0.01000000	      0.01000000	      0.01000000	      0.01000000	      0.01000000	      6.76446981	    -45.43546724	      0.20016031	      0.41393940	      0.63751142	      0.64455912	     64.12609138	    -66.84814824	     65.05925806	    -65.17149879	   -101.74981609	     98.75042569	   -101.62709380	     99.23229418	     31.26206804	     17.32958047	     32.19872800	     12.84625894	    -56.65879781	     81.57020672
      0.85000000	      0.01000000	      0.01000000	      0.01000000	      0.01000000	      0.01000000	      0.01000000	      0.01000000	      0.01000000	      0.01000000	      0.01000000	      0.01000000	      0.01000000	      0.01000000	      0.01000000	      0.01000000	      0.01000000	      0.01000000	      0.01000000	      6.50485183	     -3.63402337	      0.20441599	      0.42451843	      0.64417084	      0.70935764	     63.22807904	   -115.90178812	     64.17362568	   -117.39572536	   -100.80078931	     94.86690741	   -100.64764342	    102.92269217	     31.63409944	     42.94054385	     32.47276779	     30.53699816	    -55.81737041	     62.90315658
      0.86000000	      0.01000000	      0.01000000	      0.01000000	      0.01000000	      0.01000000	      0.01000000	      0.01000000	      0.01000000	      0.01000000	      0.01000000	      0.01000000	      0.01000000	      0.01000000	      0.01000000	      0.01000000	      0.01000000	      0.01000000	      0.01000000	      6.39183803	    -39.97472141	      0.20852906	      0.40327677	      0.65139101	      0.69415002	     62.15408530	    -74.82027036	     63.06776837	    -76.74085784	    -99.78540462	    108.60278972	    -99.54035905	    114.02478229	     31.85510510	     -0.68456610	     32.61446668	     -2.46786915	    -55.35022127	     57.12545087
      0.87000000	      0.01000000	      0.01000000	      0.01000000	      0.01000000	      0.01000000	      0.01000000	      0.01000000	      0.01000000	      0.01000000	      0.01000000	      0.01000000	      0.01000000	      0.01000000	      0.01000000	      0.01000000	      0.01000000	      0.01000000	      0.01000000	      5.91358011	    -23.44165990	      0.21262045	      0.41819473	      0.65817845	      0.70878025	     61.49111812	    -94.74505820	     62.40505164	    -95.24471462	    -98.68046009	    108.92506370	    -98.41903830	    111.43695852	     31.86370034	     18.30553221	     32.61361853	     13.50798100	    -54.60215610	     71.98392357
      0.88000000	      0.01000000	      0.01000000	      0.01000000	      0.01000000	      0.01000000	      0.01000000	      0.01000000	      0.01000000	      0.01000000	      0.01000000	      0.01000000	      0.01000000	      0.01000000	      0.01000000	      0.01000000	      0.01000000	      0.01000000	      0.01000000	      5.85698658	    -22.36537090	      0.21683437	      0.41858167	      0.66552341	      0.71399936	     60.34160940	    -95.24158310	     61.23210848	    -97.72541238	    -97.60254462	    110.15600213	    -97.28620374	    115.25176615	     32.12001990	     12.43424362	     32.79546915	      7.48790150	    -53.93229318	     80.40983864
      0.89000000	      0.01000000	      0.01000000	      0.01000000	      0.01000000	      0.01000000	      0.01000000	      0.01000000	      0.01000000	      0.01000000	      0.01000000	      0.01000000	      0.01000000	      0.01000000	      0.01000000	      0.01000000	      0.01000000	      0.01000000	      0.01000000	      5.46625361	    -21.93038045	      0.22098072	      0.41522486	      0.67251734	      0.73451173	     59.57620580	    -97.63228384	     60.45312400	    -98.88036203	    -96.44733497	    119.37743670	    -96.11087639	    120.20784566	     32.10565850	      3.75624542	     32.77528450	      3.68613166	    -53.09113104	     63.00051617
